<?xml version="1.0" encoding="utf-8"?>
<!-- Generator: Adobe Illustrator 23.0.3, SVG Export Plug-In . SVG Version: 6.00 Build 0)  -->
<svg version="1.1" id="Layer_1" xmlns="http://www.w3.org/2000/svg" xmlns:xlink="http://www.w3.org/1999/xlink" x="0px" y="0px"
	 viewBox="0 0 24 24" style="enable-background:new 0 0 24 24;" xml:space="preserve">
<style type="text/css">
	.st0{fill:#FFFFFF;}
</style>
<g>
	<path class="st0" d="M24,6.8c0-0.22-0.06-0.37-0.23-0.52C23,5.57,22.23,4.84,21.45,4.12c-1.15-1.07-2.3-2.13-3.51-3.26
		c0,1.09-0.04,2.08,0.01,3.06c0.06,1.21-0.82,2.08-2.07,2.06c-2.52-0.03-5.04-0.01-7.56-0.01c-1.31,0-2.08-0.76-2.08-2.06
		c0-1.18-0.01-2.36,0.01-3.54C6.26,0.06,6.2-0.05,5.85-0.04C4.83-0.02,3.81,0,2.8-0.04C1.3-0.1-0.02,0.9-0.01,2.75
		C0.02,8.92,0,15.08,0.01,21.25c0,0.31,0.01,0.63,0.09,0.92c0.3,1.14,1.29,1.86,2.54,1.86c6.19,0,12.38-0.01,18.58,0.01
		c1.44,0.01,2.81-0.9,2.79-2.77C23.98,16.45,24,11.63,24,6.8z M22.82,21.45c0,0.88-0.54,1.42-1.41,1.42c-6.27,0-12.55,0.01-18.82,0
		c-0.86,0-1.4-0.54-1.4-1.39c0-6.31,0-12.63,0-18.94c0-0.86,0.52-1.4,1.38-1.42c0.76-0.01,1.52,0.01,2.28-0.01
		c0.24,0,0.29,0.08,0.29,0.3C5.14,2.45,5.08,3.48,5.16,4.5c0.11,1.35,1.3,2.59,2.66,2.61c2.84,0.04,5.69,0.03,8.53,0
		c1.28-0.01,2.77-1.18,2.76-3.09c0-0.13,0.01-0.26,0.02-0.39c0.15,0.02,0.21,0.12,0.28,0.19c1.06,0.99,2.12,1.98,3.18,2.97
		c0.15,0.14,0.22,0.27,0.22,0.48C22.82,12,22.82,16.72,22.82,21.45z"/>
	<path class="st0" d="M16,15.04c-0.77,0-1.5-0.01-2.23,0.01c-0.13,0-0.2-0.01-0.23-0.04c-0.03-0.03-0.04-0.1-0.04-0.23
		c0.01-1.05,0.01-2.12,0.01-3.16c0-0.91,0-1.85,0.01-2.77c0-0.14-0.01-0.29-0.11-0.38c-0.1-0.1-0.24-0.1-0.37-0.1
		c-0.72,0.02-1.36,0.02-1.98,0c-0.19-0.01-0.35,0.01-0.45,0.11c-0.11,0.11-0.13,0.29-0.12,0.44c0.01,1.1,0.01,2.23,0.01,3.32
		c0,0.83,0,1.69,0.01,2.53c0,0.14-0.01,0.21-0.04,0.24c-0.03,0.03-0.11,0.04-0.22,0.04c-0.73-0.02-1.44-0.01-2.19-0.01
		c-0.29,0-0.58,0-0.87,0H6.98l0.07,0.17c0.01,0.03,0.02,0.05,0.02,0.06c0.01,0.04,0.03,0.07,0.05,0.11
		c0.43,0.59,0.86,1.19,1.29,1.78c1.09,1.52,2.23,3.09,3.33,4.63c0.07,0.09,0.15,0.19,0.26,0.19c0,0,0,0,0,0
		c0.12,0,0.2-0.11,0.27-0.2c0.55-0.76,1.11-1.53,1.65-2.28c0.28-0.39,0.57-0.78,0.85-1.17c0.51-0.71,1.02-1.41,1.54-2.14l0.83-1.16
		H16.9C16.6,15.05,16.3,15.04,16,15.04z M14.95,16.49c-0.41,0.57-0.8,1.11-1.19,1.66c-0.17,0.24-0.34,0.47-0.51,0.71
		c-0.39,0.53-0.78,1.08-1.17,1.63c-0.01,0.02-0.05,0.06-0.07,0.09c-0.01-0.01-0.03-0.03-0.05-0.06c-0.84-1.18-1.68-2.33-2.56-3.55
		L8.7,15.99c0.17,0,0.34,0,0.5,0c0.6,0,1.16,0,1.73,0.01c0.13,0,0.28-0.01,0.38-0.1c0.1-0.1,0.11-0.24,0.11-0.38
		c-0.01-0.91-0.01-1.84-0.01-2.74c0-1.05,0-2.13-0.01-3.19c0-0.12,0.01-0.2,0.04-0.23c0.03-0.03,0.11-0.04,0.24-0.04l0.03,0
		c0.42,0.01,0.67,0.01,0.76,0.1c0.09,0.09,0.09,0.35,0.09,0.79c0,0.45,0,0.91,0,1.36c0,1.29,0,2.61-0.01,3.92
		c0,0.2,0.03,0.32,0.12,0.4c0.1,0.1,0.24,0.11,0.41,0.11c0.56-0.01,1.12-0.01,1.72-0.01c0.17,0,0.33,0,0.5,0L14.95,16.49z"/>
</g>
</svg>
