<?xml version="1.0" encoding="utf-8"?>
<!-- Generator: Adobe Illustrator 17.0.0, SVG Export Plug-In . SVG Version: 6.00 Build 0)  -->
<!DOCTYPE svg PUBLIC "-//W3C//DTD SVG 1.1//EN" "http://www.w3.org/Graphics/SVG/1.1/DTD/svg11.dtd">
<svg version="1.1" id="Layer_1" xmlns="http://www.w3.org/2000/svg" xmlns:xlink="http://www.w3.org/1999/xlink" x="0px" y="0px"
	 width="512px" height="512px" viewBox="0 0 512 512" enable-background="new 0 0 512 512" xml:space="preserve">
<path fill="#FFFFFF" d="M465.535,0.32C465.004,0.277,464.555,0,464,0H234.668c-35.285,0-64,28.715-64,64v21.332
	c0,11.777,9.555,21.336,21.332,21.336s21.332-9.559,21.332-21.336V64c0-11.754,9.578-21.332,21.336-21.332h99.391l-6.508,2.176
	c-17.277,5.973-28.883,22.25-28.883,40.488v320h-64c-11.758,0-21.336-9.578-21.336-21.332v-42.668
	c0-11.773-9.555-21.332-21.332-21.332s-21.332,9.559-21.332,21.332V384c0,35.285,28.715,64,64,64h64v21.332
	c0,23.531,19.133,42.668,42.664,42.668c4.566,0,8.898-0.66,13.59-2.113l128.172-42.73c17.301-5.973,28.906-22.25,28.906-40.488v-384
	C512,17.793,490.559-1.707,465.535,0.32z"/>
<path fill="#FFFFFF" d="M228.414,198.25l-85.332-85.332c-6.102-6.102-15.273-7.938-23.254-4.629
	c-7.957,3.305-13.16,11.094-13.16,19.711v64H21.332C9.559,192,0,201.559,0,213.332c0,11.777,9.559,21.336,21.332,21.336h85.336v64
	c0,8.617,5.203,16.402,13.16,19.711c7.98,3.305,17.152,1.473,23.254-4.629l85.332-85.336
	C236.758,220.074,236.758,206.594,228.414,198.25z"/>
</svg>
