<?xml version="1.0" encoding="utf-8"?>
<!-- Generator: Adobe Illustrator 17.0.0, SVG Export Plug-In . SVG Version: 6.00 Build 0)  -->
<!DOCTYPE svg PUBLIC "-//W3C//DTD SVG 1.1//EN" "http://www.w3.org/Graphics/SVG/1.1/DTD/svg11.dtd">
<svg version="1.1" id="Capa_1" xmlns="http://www.w3.org/2000/svg" xmlns:xlink="http://www.w3.org/1999/xlink" x="0px" y="0px"
	 width="612px" height="792px" viewBox="0 0 612 792" enable-background="new 0 0 612 792" xml:space="preserve">
<g>
	<g>
		<path fill="#0A73A0" d="M306,90C137.261,90,0,227.261,0,396s137.261,306,306,306s306-137.285,306-306S474.739,90,306,90z
			 M306,654.595c-142.571,0-258.595-116-258.595-258.595S163.429,137.405,306,137.405s258.595,116,258.595,258.595
			S448.595,654.595,306,654.595z"/>
	</g>
</g>
<g>
	<g>
		<path fill="#0A73A0" d="M424.513,370.165h-94.81v-94.81c0-13.084-10.595-23.703-23.703-23.703
			c-13.108,0-23.703,10.619-23.703,23.703v94.81h-94.81c-13.108,0-23.703,10.619-23.703,23.703s10.595,23.703,23.703,23.703h94.81
			v94.81c0,13.084,10.595,23.703,23.703,23.703c13.108,0,23.703-10.619,23.703-23.703v-94.81h94.81
			c13.108,0,23.703-10.619,23.703-23.703S437.621,370.165,424.513,370.165z"/>
	</g>
</g>
</svg>
