<?xml version="1.0" encoding="utf-8"?>
<!-- Generator: Adobe Illustrator 17.0.0, SVG Export Plug-In . SVG Version: 6.00 Build 0)  -->
<!DOCTYPE svg PUBLIC "-//W3C//DTD SVG 1.1//EN" "http://www.w3.org/Graphics/SVG/1.1/DTD/svg11.dtd">
<svg version="1.1" id="Layer_1" xmlns="http://www.w3.org/2000/svg" xmlns:xlink="http://www.w3.org/1999/xlink" x="0px" y="0px"
	 width="512px" height="512px" viewBox="0 0 512 512" enable-background="new 0 0 512 512" xml:space="preserve">
<path fill="#FFFFFF" d="M474.668,341.332h-5.336v-32C469.332,279.938,445.398,256,416,256s-53.332,23.938-53.332,53.332v32h-5.336
	c-20.586,0-37.332,16.746-37.332,37.336v74.664c0,20.59,16.746,37.336,37.332,37.336h117.336c20.586,0,37.332-16.746,37.332-37.336
	v-74.664C512,358.078,495.254,341.332,474.668,341.332z M394.668,309.332c0-11.754,9.578-21.332,21.332-21.332
	s21.332,9.578,21.332,21.332v32h-42.664V309.332z"/>
<path fill="#FFFFFF" d="M288,378.668c0-28.801,17.645-53.527,42.668-64v-5.336c0-12.969,3.133-25.129,8.34-36.16
	c-16.129-10.816-35.5-17.172-56.34-17.172H101.332C45.461,256,0,301.461,0,357.332V432c0,8.832,7.168,16,16,16h272V378.668z"/>
<path fill="#FFFFFF" d="M298.668,106.668c0,58.91-47.758,106.664-106.668,106.664S85.332,165.578,85.332,106.668S133.09,0,192,0
	S298.668,47.758,298.668,106.668z"/>
</svg>
