<?xml version="1.0" encoding="utf-8"?>
<!-- Generator: Adobe Illustrator 17.0.0, SVG Export Plug-In . SVG Version: 6.00 Build 0)  -->
<!DOCTYPE svg PUBLIC "-//W3C//DTD SVG 1.1//EN" "http://www.w3.org/Graphics/SVG/1.1/DTD/svg11.dtd">
<svg version="1.1" id="Layer_1" xmlns="http://www.w3.org/2000/svg" xmlns:xlink="http://www.w3.org/1999/xlink" x="0px" y="0px"
	 width="400px" height="400px" viewBox="0 0 400 400" enable-background="new 0 0 400 400" xml:space="preserve">
<title>Close 2.15</title>
<desc>Created with Sketch.</desc>
<g>
	<g>
		<path d="M275.284,116.716c4.372-4.372,4.369-11.463,0.006-15.826l-16.18-16.18c-4.369-4.369-11.47-4.35-15.826,0.006
			l-35.368,35.368c-4.372,4.372-11.475,4.356-15.832,0l-35.368-35.368c-4.372-4.372-11.463-4.369-15.826-0.006l-16.18,16.18
			c-4.369,4.369-4.35,11.47,0.006,15.826l35.368,35.368c4.372,4.372,4.356,11.475,0,15.832l-35.368,35.368
			c-4.372,4.372-4.369,11.463-0.006,15.826l16.18,16.18c4.369,4.369,11.47,4.35,15.826-0.006l35.368-35.368
			c4.372-4.372,11.475-4.356,15.832,0l35.368,35.368c4.372,4.372,11.463,4.369,15.826,0.006l16.18-16.18
			c4.369-4.369,4.35-11.47-0.006-15.826l-35.368-35.368c-4.372-4.372-4.356-11.475,0-15.832L275.284,116.716z"/>
	</g>
</g>
<text transform="matrix(1 0 0 1 39.9999 367.9999)" display="none" enable-background="new    " font-family="'HelveticaNeue-Bold'" font-size="16">Created by Landan Lloyd</text>
<text transform="matrix(1 0 0 1 39.9999 383.9999)" display="none" enable-background="new    " font-family="'HelveticaNeue-Bold'" font-size="16">from the Noun Project</text>
</svg>
