<?xml version="1.0" encoding="utf-8"?>
<!-- Generator: Adobe Illustrator 23.0.3, SVG Export Plug-In . SVG Version: 6.00 Build 0)  -->
<svg version="1.1" id="Layer_1" xmlns="http://www.w3.org/2000/svg" xmlns:xlink="http://www.w3.org/1999/xlink" x="0px" y="0px"
	 viewBox="0 0 100 100" style="enable-background:new 0 0 100 100;" xml:space="preserve">
<style type="text/css">
	.st0{fill:#FFFFFF;}
</style>
<g>
	<path class="st0" d="M39.92,33.72c-11.04-0.39-21.61,5.89-25.96,16.2C9.1,61.42,4.77,73.15,0.24,84.79
		c-0.7,1.8,0.14,2.65,2.09,2.17c5.55-1.38,11.11-2.77,16.63-4.25c1.25-0.34,2.14-0.22,3.16,0.61c4.86,3.97,10.55,5.61,14.83,5.76
		c12.2,0.17,21.95-5.79,26.68-15.12C72.8,55.87,60.17,34.44,39.92,33.72z M39.18,76.51c-1.56,0.04-2.78-1.13-2.78-2.65
		c0-1.44,1.16-2.63,2.61-2.67c1.47-0.04,2.81,1.25,2.81,2.69C41.83,75.31,40.65,76.48,39.18,76.51z M46.87,57.47
		c-1.01,1.28-2.22,2.37-3.49,3.37c-1.49,1.19-2.27,2.63-2.05,4.5c0.2,1.63-0.54,2.03-1.96,1.8c-0.11-0.02-0.23,0-0.35,0
		c-2.45,0-2.45,0-2.36-2.86c-0.28-2.6,1.02-4.75,3.41-6.39c0.61-0.42,1.17-0.96,1.66-1.51c1.45-1.62,1.63-3.16,0.6-4.54
		c-1.03-1.39-3.37-1.89-5.03-1.09c-0.86,0.41-1.7,0.99-1.95,1.88c-0.53,1.84-1.76,1.73-3.2,1.5c-2.5-0.4-2.77-0.79-1.56-3.03
		c1.77-3.28,4.8-4.59,8.33-4.74c3.41-0.15,6.43,0.81,8.38,3.88C48.85,52.65,48.65,55.22,46.87,57.47z"/>
	<path class="st0" d="M99.46,77.36c-3.08-6.48-6.12-12.98-9.29-19.42c-0.69-1.39-0.62-2.45-0.05-3.84
		c4.36-10.63,3.43-20.89-3.33-30.15C79.13,13.45,68.48,9.23,55.69,11.54C45.53,13.38,38.3,19.5,33.46,28.82
		c2.34-0.48,4.49-0.44,6.62-0.36c1.12,0.04,1.78-0.34,2.46-1.2c9.3-11.91,26.51-12.74,36.88-1.73c7.01,7.44,8.85,18.96,3.24,28.67
		c-0.73,1.27-0.68,2.23-0.05,3.49c2.28,4.57,4.43,9.2,6.72,14.02c-5.22-0.96-10.22-1.88-15.22-2.81c-2.46-0.46-2.45-0.46-3.18,1.9
		c-0.29,0.94-0.54,1.91-0.99,2.78c-0.64,1.24-0.27,1.58,1.02,1.81c8.79,1.53,17.56,3.14,26.34,4.73c0.84,0.15,1.69,0.58,2.39-0.32
		C100.34,78.91,99.84,78.15,99.46,77.36z"/>
</g>
</svg>
