<?xml version="1.0" encoding="utf-8"?>
<!-- Generator: Adobe Illustrator 17.0.0, SVG Export Plug-In . SVG Version: 6.00 Build 0)  -->
<!DOCTYPE svg PUBLIC "-//W3C//DTD SVG 1.1//EN" "http://www.w3.org/Graphics/SVG/1.1/DTD/svg11.dtd">
<svg version="1.1" id="Layer_1" xmlns="http://www.w3.org/2000/svg" xmlns:xlink="http://www.w3.org/1999/xlink" x="0px" y="0px"
	 width="80px" height="80px" viewBox="110 0 80 80" enable-background="new 110 0 80 80" xml:space="preserve">
<title>dominant-speaker</title>
<path fill="#FFFFFF" d="M190,3.543h-80v55.486h28.514l-3.943,14c-0.4,1.429,0.429,2.914,1.857,3.314
	c0.257,0.057,0.486,0.114,0.743,0.114c1.171,0,2.257-0.771,2.571-1.943l4.371-15.457h11.571l4.371,15.457
	c0.343,1.171,1.4,1.943,2.571,1.943c0.229,0,0.486-0.029,0.743-0.114c1.429-0.4,2.257-1.886,1.857-3.314l-3.943-14H190V3.543z
	 M184.629,53.657h-69.257V8.914h69.286v44.743H184.629z"/>
</svg>
